# xmcd
#
# Track frame offsets:
#	150
#	13214
#	22421
#	49742
#	58821
#	68077
#	77899
#	87262
#	99735
#	111910
#	121867
#	128725
#	136268
#	148259
#	162818
#	177089
#	187497
#	196057
#	197633
#	210313
#	223371
#	224757
#	226082
#	228900
#	247479
#	261611
#	272074
#	283773
#
# Disc length: 3829 seconds
#
# Revision: 1
# Processed by: cddbd v1.5.2PL0 Copyright (c) Steve Scherf et al.
# Submitted via: audiograbber 1.83.01
#
DISCID=c30ef31c
DTITLE=Karl Schupp - Karle's Lumpenlieder
DYEAR=2013
DGENRE=Other
TTITLE0=Alle Buben
TTITLE1=An am Sonntag
TTITLE2=Auf auf ihr Bürger
TTITLE3=Bin a Bauer
TTITLE4=Das schönste Bleami
TTITLE5=Das war der Graf
TTITLE6=Der Arzt sagt zu mir
TTITLE7=Der Dyonis ist a Tyrann
TTITLE8=Der Hans im Schnokeloch
TTITLE9=Der Wirt der hot im Keller drunt
TTITLE10=Drei Musketiere
TTITLE11=Droben auf dr rauhe Alb
TTITLE12=Einst ging ich am Ufer
TTITLE13=Es hat ein Bauer
TTITLE14=Es war amoi a Holz
TTITLE15=Es war ein Schütz
TTITLE16=Hansel heut muat früh aufstehn
TTITLE17=i hau amoi a Bauremädie
TTITLE18=Jeder Mulitreiber
TTITLE19=Neuli hat mir mei Dirndl
TTITLE20=Prost Brüder bei der Linde
TTITLE21=Prost und Prost
TTITLE22=Prost Prost Kamerad
TTITLE23=Tritt der Mensch ins Leben rein
TTITLE24=War einst ein Karmeliter
TTITLE25=Wenn i nachts von dr Kneip hoimge
TTITLE26=Wennst in Himmel willst kimma
TTITLE27=Es war amoi a Holzknecht Gitarre
EXTD=
EXTT0=
EXTT1=
EXTT2=
EXTT3=
EXTT4=
EXTT5=
EXTT6=
EXTT7=
EXTT8=
EXTT9=
EXTT10=
EXTT11=
EXTT12=
EXTT13=
EXTT14=
EXTT15=
EXTT16=
EXTT17=
EXTT18=
EXTT19=
EXTT20=
EXTT21=
EXTT22=
EXTT23=
EXTT24=
EXTT25=
EXTT26=
EXTT27=
PLAYORDER=
